<?xml version="1.0" standalone="no"?>
<!DOCTYPE svg PUBLIC "-//W3C//DTD SVG 20010904//EN"
 "http://www.w3.org/TR/2001/REC-SVG-20010904/DTD/svg10.dtd">
<svg version="1.0" xmlns="http://www.w3.org/2000/svg"
 width="599.000000pt" height="572.000000pt" viewBox="0 0 599.000000 572.000000"
 preserveAspectRatio="xMidYMid meet">

<g transform="translate(0.000000,572.000000) scale(0.100000,-0.100000)"
fill="#000000" stroke="none">
<path d="M2915 5371 c-128 -37 -179 -81 -277 -240 -40 -64 -85 -134 -100 -155
-15 -21 -28 -45 -28 -52 0 -8 38 -71 83 -141 46 -71 121 -186 167 -258 46 -71
122 -188 169 -260 46 -71 106 -164 132 -205 25 -41 85 -136 132 -210 47 -74
129 -202 181 -285 53 -82 136 -213 185 -290 50 -77 136 -212 192 -300 55 -88
143 -225 194 -305 271 -421 309 -491 345 -626 27 -100 30 -277 6 -374 -56
-225 -182 -397 -383 -523 -46 -29 -83 -55 -83 -60 0 -8 34 -58 130 -192 153
-211 370 -346 625 -386 76 -13 281 -6 330 10 17 5 57 17 90 27 217 62 432 249
538 468 82 168 92 213 91 416 -1 149 -3 174 -28 253 -14 49 -38 112 -52 140
-30 59 -255 424 -427 692 -274 426 -301 469 -601 942 -66 103 -160 252 -210
331 -50 79 -120 189 -156 246 -36 56 -106 165 -156 242 -50 76 -140 216 -199
309 -111 175 -238 375 -350 550 -95 150 -163 203 -302 239 -78 20 -162 19
-238 -3z"/>
<path d="M3135 2367 c-22 -12 -94 -48 -160 -79 -315 -149 -406 -192 -930 -448
-213 -104 -410 -199 -520 -251 -118 -55 -207 -74 -345 -72 -105 0 -140 5 -215
27 -154 46 -318 156 -395 265 -19 28 -40 50 -45 51 -19 0 -77 -148 -99 -257
-88 -425 164 -889 564 -1037 125 -46 206 -60 345 -59 329 3 586 142 784 421
202 286 290 408 489 682 318 436 513 699 546 737 16 19 27 36 24 38 -2 2 -22
-6 -43 -18z"/>
</g>
</svg>
