<?xml version="1.0" standalone="no"?>
<!DOCTYPE svg PUBLIC "-//W3C//DTD SVG 20010904//EN"
 "http://www.w3.org/TR/2001/REC-SVG-20010904/DTD/svg10.dtd">
<svg version="1.0" xmlns="http://www.w3.org/2000/svg"
 width="600.000000pt" height="479.000000pt" viewBox="0 0 600.000000 479.000000"
 preserveAspectRatio="xMidYMid meet">

<g transform="translate(0.000000,479.000000) scale(0.100000,-0.100000)"
fill="#000000" stroke="none">
<path d="M2540 2563 c-250 -432 -498 -861 -552 -952 -53 -91 -95 -167 -93
-169 2 -2 251 125 554 283 l551 286 418 -217 c229 -119 477 -248 550 -286 73
-39 135 -69 136 -67 4 5 -1097 1909 -1104 1909 -3 0 -210 -354 -460 -787z
m607 25 c78 -134 216 -373 308 -533 92 -159 177 -306 188 -325 l20 -35 -24 21
c-479 416 -630 544 -639 544 -6 0 -147 -118 -313 -261 -166 -144 -313 -271
-326 -283 l-25 -21 15 25 c9 14 156 269 328 568 172 298 317 542 321 542 4 0
70 -109 147 -242z"/>
</g>
</svg>
